<svg width="31" height="31" viewBox="0 0 31 31" fill="none" xmlns="http://www.w3.org/2000/svg">
<g filter="url(#filter0_d_4_997)">
<path d="M25.5 17.2399V5.16994C25.5 3.96994 24.52 3.07994 23.33 3.17994H23.27C21.17 3.35994 17.98 4.42994 16.2 5.54994L16.03 5.65994C15.74 5.83994 15.26 5.83994 14.97 5.65994L14.72 5.50994C12.94 4.39994 9.76 3.33994 7.66 3.16994C6.47 3.06994 5.5 3.96994 5.5 5.15994V17.2399C5.5 18.1999 6.28 19.0999 7.24 19.2199L7.53 19.2599C9.7 19.5499 13.05 20.6499 14.97 21.6999L15.01 21.7199C15.28 21.8699 15.71 21.8699 15.97 21.7199C17.89 20.6599 21.25 19.5499 23.43 19.2599L23.76 19.2199C24.72 19.0999 25.5 18.1999 25.5 17.2399Z" stroke="#9B9B9B" stroke-width="1.5" stroke-linecap="round" stroke-linejoin="round"/>
<path d="M15.5 5.98999V20.99" stroke="#9B9B9B" stroke-width="1.5" stroke-linecap="round" stroke-linejoin="round"/>
<path d="M11.25 8.98999H9" stroke="#9B9B9B" stroke-width="1.5" stroke-linecap="round" stroke-linejoin="round"/>
<path d="M12 11.99H9" stroke="#9B9B9B" stroke-width="1.5" stroke-linecap="round" stroke-linejoin="round"/>
</g>
<defs>
<filter id="filter0_d_4_997" x="-0.5" y="0.5" width="32" height="32" filterUnits="userSpaceOnUse" color-interpolation-filters="sRGB">
<feFlood flood-opacity="0" result="BackgroundImageFix"/>
<feColorMatrix in="SourceAlpha" type="matrix" values="0 0 0 0 0 0 0 0 0 0 0 0 0 0 0 0 0 0 127 0" result="hardAlpha"/>
<feOffset dy="4"/>
<feGaussianBlur stdDeviation="2"/>
<feComposite in2="hardAlpha" operator="out"/>
<feColorMatrix type="matrix" values="0 0 0 0 0 0 0 0 0 0 0 0 0 0 0 0 0 0 0.25 0"/>
<feBlend mode="normal" in2="BackgroundImageFix" result="effect1_dropShadow_4_997"/>
<feBlend mode="normal" in="SourceGraphic" in2="effect1_dropShadow_4_997" result="shape"/>
</filter>
</defs>
</svg>
