<svg width="25" height="25" viewBox="0 0 25 25" fill="none" xmlns="http://www.w3.org/2000/svg">
<path d="M12.5201 3.41003C9.21009 3.41003 6.52009 6.10003 6.52009 9.41003V12.3C6.52009 12.91 6.26009 13.84 5.95009 14.36L4.80009 16.27C4.09009 17.45 4.58009 18.76 5.88009 19.2C10.1901 20.64 14.8401 20.64 19.1501 19.2C20.3601 18.8 20.8901 17.37 20.2301 16.27L19.0801 14.36C18.7801 13.84 18.5201 12.91 18.5201 12.3V9.41003C18.5201 6.11003 15.8201 3.41003 12.5201 3.41003Z" stroke="#9B9B9B" stroke-width="1.5" stroke-miterlimit="10" stroke-linecap="round"/>
<path d="M14.3699 3.69994C14.0599 3.60994 13.7399 3.53994 13.4099 3.49994C12.4499 3.37994 11.5299 3.44994 10.6699 3.69994C10.9599 2.95994 11.6799 2.43994 12.5199 2.43994C13.3599 2.43994 14.0799 2.95994 14.3699 3.69994Z" stroke="#9B9B9B" stroke-width="1.5" stroke-miterlimit="10" stroke-linecap="round" stroke-linejoin="round"/>
<path d="M15.52 19.5601C15.52 21.2101 14.17 22.5601 12.52 22.5601C11.7 22.5601 10.94 22.2201 10.4 21.6801C9.86002 21.1401 9.52002 20.3801 9.52002 19.5601" stroke="#9B9B9B" stroke-width="1.5" stroke-miterlimit="10"/>
</svg>
