<svg width="25" height="25" viewBox="0 0 25 25" fill="none" xmlns="http://www.w3.org/2000/svg">
<path d="M22.6559 21.5515L16.7559 15.6515C18.1737 13.9494 18.8807 11.7663 18.7298 9.55616C18.579 7.34606 17.5818 5.27919 15.9459 3.78554C14.31 2.29189 12.1611 1.48645 9.94646 1.53677C7.73178 1.58709 5.62177 2.4893 4.05535 4.05572C2.48894 5.62213 1.58672 7.73215 1.5364 9.94683C1.48608 12.1615 2.29152 14.3103 3.78518 15.9463C5.27883 17.5822 7.34569 18.5793 9.55579 18.7302C11.7659 18.8811 13.9491 18.174 15.6512 16.7562L21.5512 22.6562L22.6559 21.5515ZM3.12462 10.1562C3.12462 8.76558 3.53699 7.40616 4.3096 6.24988C5.0822 5.0936 6.18033 4.19238 7.46512 3.66021C8.74992 3.12803 10.1637 2.98878 11.5276 3.26009C12.8915 3.53139 14.1444 4.20105 15.1277 5.18439C16.111 6.16773 16.7807 7.42058 17.052 8.7845C17.3233 10.1484 17.1841 11.5622 16.6519 12.847C16.1197 14.1318 15.2185 15.2299 14.0622 16.0025C12.9059 16.7751 11.5465 17.1875 10.1559 17.1875C8.2917 17.1854 6.50447 16.444 5.18631 15.1258C3.86814 13.8076 3.12669 12.0204 3.12462 10.1562Z" fill="black" fill-opacity="0.5"/>
</svg>
